<svg xmlns="http://www.w3.org/2000/svg" xmlns:xlink="http://www.w3.org/1999/xlink" width="320" zoomAndPan="magnify" viewBox="0 0 240 60" height="80" preserveAspectRatio="xMidYMid meet" version="1.0"><defs><filter x="0%" y="0%" width="100%" height="100%" id="4463f6546a"><feColorMatrix values="0 0 0 0 1 0 0 0 0 1 0 0 0 0 1 0 0 0 1 0" color-interpolation-filters="sRGB"/></filter><g/><clipPath id="273758bbaa"><path d="M 3 13 L 47 13 L 47 56 L 3 56 Z M 3 13 " clip-rule="nonzero"/></clipPath><clipPath id="1e7232147c"><path d="M 28.132812 13.300781 L 46.269531 33.300781 L 21.265625 55.972656 L 3.128906 35.96875 Z M 28.132812 13.300781 " clip-rule="nonzero"/></clipPath><clipPath id="d223d97301"><path d="M 28.132812 13.300781 L 46.269531 33.300781 L 21.265625 55.972656 L 3.128906 35.96875 Z M 28.132812 13.300781 " clip-rule="nonzero"/></clipPath><clipPath id="2a880212a7"><path d="M 14 0 L 60 0 L 60 46 L 14 46 Z M 14 0 " clip-rule="nonzero"/></clipPath><clipPath id="418ad63566"><path d="M 14.402344 22.246094 L 38.746094 0.75 L 59.074219 23.769531 L 34.734375 45.265625 Z M 14.402344 22.246094 " clip-rule="nonzero"/></clipPath><clipPath id="edb78e86f8"><path d="M 0.398438 0.71875 L 45.28125 0.71875 L 45.28125 45.359375 L 0.398438 45.359375 Z M 0.398438 0.71875 " clip-rule="nonzero"/></clipPath><clipPath id="c081e77ffb"><path d="M 0.402344 22.246094 L 24.746094 0.75 L 45.074219 23.769531 L 20.734375 45.265625 Z M 0.402344 22.246094 " clip-rule="nonzero"/></clipPath><clipPath id="3779721f85"><rect x="0" width="46" y="0" height="46"/></clipPath><clipPath id="673d042cba"><path d="M 19 3 L 55 3 L 55 44 L 19 44 Z M 19 3 " clip-rule="nonzero"/></clipPath><clipPath id="b32ab1da5a"><path d="M 16.058594 23.195312 L 41.707031 0.117188 L 60.769531 21.304688 L 35.121094 44.382812 Z M 16.058594 23.195312 " clip-rule="nonzero"/></clipPath><clipPath id="61ffdf4f48"><path d="M 16.058594 23.195312 L 41.707031 0.117188 L 60.769531 21.304688 L 35.121094 44.382812 Z M 16.058594 23.195312 " clip-rule="nonzero"/></clipPath><clipPath id="a99833b4ad"><path d="M 16.058594 23.195312 L 41.707031 0.117188 L 60.769531 21.304688 L 35.121094 44.382812 Z M 16.058594 23.195312 " clip-rule="nonzero"/></clipPath><clipPath id="23aee8ac3b"><path d="M 0.992188 0 L 240 0 L 240 60 L 0.992188 60 Z M 0.992188 0 " clip-rule="nonzero"/></clipPath><clipPath id="7f21f45735"><path d="M 0.992188 0 L 240 0 L 240 60 L 0.992188 60 Z M 0.992188 0 " clip-rule="nonzero"/></clipPath><clipPath id="72541605a5"><path d="M 0.992188 0 L 240 0 L 240 60 L 0.992188 60 Z M 0.992188 0 " clip-rule="nonzero"/></clipPath><linearGradient x1="120.866997" gradientTransform="matrix(0.749952, 0, 0, 0.748753, 56.99022, 10.156107)" y1="66.569177" x2="120.866997" gradientUnits="userSpaceOnUse" y2="-13.564021" id="7ded9439de"><stop stop-opacity="1" stop-color="rgb(6.669617%, 19.999695%, 12.548828%)" offset="0"/><stop stop-opacity="1" stop-color="rgb(6.669617%, 19.999695%, 12.548828%)" offset="0.125"/><stop stop-opacity="1" stop-color="rgb(6.669617%, 19.999695%, 12.548828%)" offset="0.1875"/><stop stop-opacity="1" stop-color="rgb(6.681824%, 20.056152%, 12.606812%)" offset="0.195313"/><stop stop-opacity="1" stop-color="rgb(6.796265%, 20.545959%, 13.1073%)" offset="0.199219"/><stop stop-opacity="1" stop-color="rgb(6.896973%, 20.979309%, 13.551331%)" offset="0.203125"/><stop stop-opacity="1" stop-color="rgb(6.997681%, 21.412659%, 13.993835%)" offset="0.207031"/><stop stop-opacity="1" stop-color="rgb(7.099915%, 21.846008%, 14.43634%)" offset="0.210938"/><stop stop-opacity="1" stop-color="rgb(7.200623%, 22.277832%, 14.878845%)" offset="0.214844"/><stop stop-opacity="1" stop-color="rgb(7.301331%, 22.711182%, 15.322876%)" offset="0.21875"/><stop stop-opacity="1" stop-color="rgb(7.402039%, 23.144531%, 15.765381%)" offset="0.222656"/><stop stop-opacity="1" stop-color="rgb(7.504272%, 23.577881%, 16.207886%)" offset="0.226562"/><stop stop-opacity="1" stop-color="rgb(7.60498%, 24.01123%, 16.650391%)" offset="0.230469"/><stop stop-opacity="1" stop-color="rgb(7.705688%, 24.44458%, 17.094421%)" offset="0.234375"/><stop stop-opacity="1" stop-color="rgb(7.806396%, 24.87793%, 17.536926%)" offset="0.238281"/><stop stop-opacity="1" stop-color="rgb(7.90863%, 25.311279%, 17.979431%)" offset="0.242188"/><stop stop-opacity="1" stop-color="rgb(8.009338%, 25.744629%, 18.421936%)" offset="0.246094"/><stop stop-opacity="1" stop-color="rgb(8.110046%, 26.177979%, 18.865967%)" offset="0.25"/><stop stop-opacity="1" stop-color="rgb(8.210754%, 26.609802%, 19.308472%)" offset="0.253906"/><stop stop-opacity="1" stop-color="rgb(8.311462%, 27.043152%, 19.750977%)" offset="0.257812"/><stop stop-opacity="1" stop-color="rgb(8.41217%, 27.476501%, 20.193481%)" offset="0.261719"/><stop stop-opacity="1" stop-color="rgb(8.514404%, 27.909851%, 20.637512%)" offset="0.265625"/><stop stop-opacity="1" stop-color="rgb(8.615112%, 28.343201%, 21.080017%)" offset="0.269531"/><stop stop-opacity="1" stop-color="rgb(8.71582%, 28.77655%, 21.522522%)" offset="0.273438"/><stop stop-opacity="1" stop-color="rgb(8.816528%, 29.2099%, 21.965027%)" offset="0.277344"/><stop stop-opacity="1" stop-color="rgb(8.918762%, 29.64325%, 22.409058%)" offset="0.28125"/><stop stop-opacity="1" stop-color="rgb(9.01947%, 30.076599%, 22.851562%)" offset="0.285156"/><stop stop-opacity="1" stop-color="rgb(9.120178%, 30.509949%, 23.294067%)" offset="0.289062"/><stop stop-opacity="1" stop-color="rgb(9.220886%, 30.941772%, 23.736572%)" offset="0.292969"/><stop stop-opacity="1" stop-color="rgb(9.321594%, 31.375122%, 24.180603%)" offset="0.296875"/><stop stop-opacity="1" stop-color="rgb(9.422302%, 31.808472%, 24.623108%)" offset="0.300781"/><stop stop-opacity="1" stop-color="rgb(9.524536%, 32.241821%, 25.065613%)" offset="0.304688"/><stop stop-opacity="1" stop-color="rgb(9.625244%, 32.675171%, 25.508118%)" offset="0.308594"/><stop stop-opacity="1" stop-color="rgb(9.725952%, 33.108521%, 25.952148%)" offset="0.3125"/><stop stop-opacity="1" stop-color="rgb(9.82666%, 33.54187%, 26.394653%)" offset="0.316406"/><stop stop-opacity="1" stop-color="rgb(9.928894%, 33.97522%, 26.837158%)" offset="0.320312"/><stop stop-opacity="1" stop-color="rgb(10.029602%, 34.407043%, 27.279663%)" offset="0.324219"/><stop stop-opacity="1" stop-color="rgb(10.13031%, 34.840393%, 27.723694%)" offset="0.328125"/><stop stop-opacity="1" stop-color="rgb(10.231018%, 35.273743%, 28.166199%)" offset="0.332031"/><stop stop-opacity="1" stop-color="rgb(10.333252%, 35.707092%, 28.608704%)" offset="0.335938"/><stop stop-opacity="1" stop-color="rgb(10.43396%, 36.140442%, 29.051208%)" offset="0.339844"/><stop stop-opacity="1" stop-color="rgb(10.534668%, 36.573792%, 29.495239%)" offset="0.34375"/><stop stop-opacity="1" stop-color="rgb(10.635376%, 37.007141%, 29.937744%)" offset="0.347656"/><stop stop-opacity="1" stop-color="rgb(10.736084%, 37.440491%, 30.380249%)" offset="0.351562"/><stop stop-opacity="1" stop-color="rgb(10.836792%, 37.87384%, 30.822754%)" offset="0.355469"/><stop stop-opacity="1" stop-color="rgb(10.939026%, 38.30719%, 31.266785%)" offset="0.359375"/><stop stop-opacity="1" stop-color="rgb(11.039734%, 38.739014%, 31.70929%)" offset="0.363281"/><stop stop-opacity="1" stop-color="rgb(11.140442%, 39.172363%, 32.151794%)" offset="0.367188"/><stop stop-opacity="1" stop-color="rgb(11.24115%, 39.605713%, 32.594299%)" offset="0.371094"/><stop stop-opacity="1" stop-color="rgb(11.343384%, 40.039062%, 33.03833%)" offset="0.375"/><stop stop-opacity="1" stop-color="rgb(11.444092%, 40.472412%, 33.480835%)" offset="0.378906"/><stop stop-opacity="1" stop-color="rgb(11.5448%, 40.905762%, 33.92334%)" offset="0.382813"/><stop stop-opacity="1" stop-color="rgb(11.645508%, 41.339111%, 34.365845%)" offset="0.386719"/><stop stop-opacity="1" stop-color="rgb(11.746216%, 41.772461%, 34.809875%)" offset="0.390625"/><stop stop-opacity="1" stop-color="rgb(11.846924%, 42.205811%, 35.25238%)" offset="0.394531"/><stop stop-opacity="1" stop-color="rgb(11.949158%, 42.63916%, 35.694885%)" offset="0.398438"/><stop stop-opacity="1" stop-color="rgb(12.049866%, 43.070984%, 36.13739%)" offset="0.402344"/><stop stop-opacity="1" stop-color="rgb(12.150574%, 43.504333%, 36.581421%)" offset="0.40625"/><stop stop-opacity="1" stop-color="rgb(12.251282%, 43.937683%, 37.023926%)" offset="0.410156"/><stop stop-opacity="1" stop-color="rgb(12.353516%, 44.371033%, 37.466431%)" offset="0.414062"/><stop stop-opacity="1" stop-color="rgb(12.454224%, 44.804382%, 37.908936%)" offset="0.417969"/><stop stop-opacity="1" stop-color="rgb(12.554932%, 45.237732%, 38.352966%)" offset="0.421875"/><stop stop-opacity="1" stop-color="rgb(12.65564%, 45.671082%, 38.795471%)" offset="0.425781"/><stop stop-opacity="1" stop-color="rgb(12.757874%, 46.104431%, 39.237976%)" offset="0.429687"/><stop stop-opacity="1" stop-color="rgb(12.858582%, 46.537781%, 39.680481%)" offset="0.433594"/><stop stop-opacity="1" stop-color="rgb(12.95929%, 46.97113%, 40.124512%)" offset="0.4375"/><stop stop-opacity="1" stop-color="rgb(13.059998%, 47.402954%, 40.567017%)" offset="0.441406"/><stop stop-opacity="1" stop-color="rgb(13.160706%, 47.836304%, 41.009521%)" offset="0.445313"/><stop stop-opacity="1" stop-color="rgb(13.261414%, 48.269653%, 41.452026%)" offset="0.449219"/><stop stop-opacity="1" stop-color="rgb(13.363647%, 48.703003%, 41.896057%)" offset="0.453125"/><stop stop-opacity="1" stop-color="rgb(13.464355%, 49.136353%, 42.338562%)" offset="0.457031"/><stop stop-opacity="1" stop-color="rgb(13.565063%, 49.569702%, 42.781067%)" offset="0.460938"/><stop stop-opacity="1" stop-color="rgb(13.665771%, 50.003052%, 43.223572%)" offset="0.464844"/><stop stop-opacity="1" stop-color="rgb(13.768005%, 50.436401%, 43.667603%)" offset="0.46875"/><stop stop-opacity="1" stop-color="rgb(13.868713%, 50.869751%, 44.110107%)" offset="0.472656"/><stop stop-opacity="1" stop-color="rgb(13.969421%, 51.303101%, 44.552612%)" offset="0.476563"/><stop stop-opacity="1" stop-color="rgb(14.070129%, 51.734924%, 44.995117%)" offset="0.480469"/><stop stop-opacity="1" stop-color="rgb(14.170837%, 52.168274%, 45.439148%)" offset="0.484375"/><stop stop-opacity="1" stop-color="rgb(14.271545%, 52.601624%, 45.881653%)" offset="0.488281"/><stop stop-opacity="1" stop-color="rgb(14.373779%, 53.034973%, 46.324158%)" offset="0.492188"/><stop stop-opacity="1" stop-color="rgb(14.474487%, 53.468323%, 46.766663%)" offset="0.496094"/><stop stop-opacity="1" stop-color="rgb(14.575195%, 53.901672%, 47.210693%)" offset="0.5"/><stop stop-opacity="1" stop-color="rgb(14.675903%, 54.335022%, 47.653198%)" offset="0.503906"/><stop stop-opacity="1" stop-color="rgb(14.778137%, 54.768372%, 48.097229%)" offset="0.507813"/><stop stop-opacity="1" stop-color="rgb(15.138245%, 55.247498%, 48.469543%)" offset="0.511719"/><stop stop-opacity="1" stop-color="rgb(15.498352%, 55.726624%, 48.843384%)" offset="0.515625"/><stop stop-opacity="1" stop-color="rgb(16.249084%, 56.274414%, 49.113464%)" offset="0.519531"/><stop stop-opacity="1" stop-color="rgb(16.999817%, 56.82373%, 49.383545%)" offset="0.523438"/><stop stop-opacity="1" stop-color="rgb(17.750549%, 57.373047%, 49.6521%)" offset="0.527344"/><stop stop-opacity="1" stop-color="rgb(18.501282%, 57.922363%, 49.92218%)" offset="0.53125"/><stop stop-opacity="1" stop-color="rgb(19.252014%, 58.470154%, 50.190735%)" offset="0.535156"/><stop stop-opacity="1" stop-color="rgb(20.004272%, 59.01947%, 50.460815%)" offset="0.539063"/><stop stop-opacity="1" stop-color="rgb(20.755005%, 59.567261%, 50.730896%)" offset="0.542969"/><stop stop-opacity="1" stop-color="rgb(21.505737%, 60.116577%, 51.000977%)" offset="0.546875"/><stop stop-opacity="1" stop-color="rgb(22.25647%, 60.665894%, 51.269531%)" offset="0.550781"/><stop stop-opacity="1" stop-color="rgb(23.007202%, 61.21521%, 51.539612%)" offset="0.554688"/><stop stop-opacity="1" stop-color="rgb(23.757935%, 61.763%, 51.808167%)" offset="0.558594"/><stop stop-opacity="1" stop-color="rgb(24.510193%, 62.312317%, 52.078247%)" offset="0.5625"/><stop stop-opacity="1" stop-color="rgb(25.260925%, 62.861633%, 52.348328%)" offset="0.566406"/><stop stop-opacity="1" stop-color="rgb(26.011658%, 63.41095%, 52.618408%)" offset="0.570312"/><stop stop-opacity="1" stop-color="rgb(26.76239%, 63.95874%, 52.886963%)" offset="0.574219"/><stop stop-opacity="1" stop-color="rgb(27.514648%, 64.508057%, 53.157043%)" offset="0.578125"/><stop stop-opacity="1" stop-color="rgb(28.265381%, 65.055847%, 53.425598%)" offset="0.582031"/><stop stop-opacity="1" stop-color="rgb(29.016113%, 65.605164%, 53.695679%)" offset="0.585938"/><stop stop-opacity="1" stop-color="rgb(29.766846%, 66.15448%, 53.965759%)" offset="0.589844"/><stop stop-opacity="1" stop-color="rgb(30.517578%, 66.703796%, 54.23584%)" offset="0.59375"/><stop stop-opacity="1" stop-color="rgb(31.268311%, 67.251587%, 54.504395%)" offset="0.597656"/><stop stop-opacity="1" stop-color="rgb(32.020569%, 67.800903%, 54.774475%)" offset="0.601562"/><stop stop-opacity="1" stop-color="rgb(32.771301%, 68.348694%, 55.04303%)" offset="0.605469"/><stop stop-opacity="1" stop-color="rgb(33.522034%, 68.89801%, 55.31311%)" offset="0.609375"/><stop stop-opacity="1" stop-color="rgb(34.272766%, 69.447327%, 55.583191%)" offset="0.613281"/><stop stop-opacity="1" stop-color="rgb(35.023499%, 69.996643%, 55.853271%)" offset="0.617188"/><stop stop-opacity="1" stop-color="rgb(35.774231%, 70.544434%, 56.121826%)" offset="0.621094"/><stop stop-opacity="1" stop-color="rgb(36.526489%, 71.09375%, 56.391907%)" offset="0.625"/><stop stop-opacity="1" stop-color="rgb(37.277222%, 71.641541%, 56.660461%)" offset="0.628906"/><stop stop-opacity="1" stop-color="rgb(38.027954%, 72.190857%, 56.930542%)" offset="0.632813"/><stop stop-opacity="1" stop-color="rgb(38.778687%, 72.740173%, 57.200623%)" offset="0.636719"/><stop stop-opacity="1" stop-color="rgb(39.529419%, 73.28949%, 57.470703%)" offset="0.640625"/><stop stop-opacity="1" stop-color="rgb(40.280151%, 73.83728%, 57.739258%)" offset="0.644531"/><stop stop-opacity="1" stop-color="rgb(41.03241%, 74.386597%, 58.009338%)" offset="0.648438"/><stop stop-opacity="1" stop-color="rgb(41.783142%, 74.935913%, 58.277893%)" offset="0.652344"/><stop stop-opacity="1" stop-color="rgb(42.533875%, 75.485229%, 58.547974%)" offset="0.65625"/><stop stop-opacity="1" stop-color="rgb(43.284607%, 76.03302%, 58.818054%)" offset="0.660156"/><stop stop-opacity="1" stop-color="rgb(44.035339%, 76.582336%, 59.088135%)" offset="0.664062"/><stop stop-opacity="1" stop-color="rgb(44.786072%, 77.130127%, 59.356689%)" offset="0.667969"/><stop stop-opacity="1" stop-color="rgb(45.53833%, 77.679443%, 59.62677%)" offset="0.671875"/><stop stop-opacity="1" stop-color="rgb(46.289062%, 78.22876%, 59.895325%)" offset="0.675781"/><stop stop-opacity="1" stop-color="rgb(47.039795%, 78.778076%, 60.165405%)" offset="0.679688"/><stop stop-opacity="1" stop-color="rgb(47.790527%, 79.325867%, 60.435486%)" offset="0.683594"/><stop stop-opacity="1" stop-color="rgb(48.54126%, 79.875183%, 60.705566%)" offset="0.6875"/><stop stop-opacity="1" stop-color="rgb(49.291992%, 80.422974%, 60.974121%)" offset="0.691406"/><stop stop-opacity="1" stop-color="rgb(50.04425%, 80.97229%, 61.244202%)" offset="0.695312"/><stop stop-opacity="1" stop-color="rgb(50.794983%, 81.521606%, 61.512756%)" offset="0.699219"/><stop stop-opacity="1" stop-color="rgb(51.545715%, 82.070923%, 61.782837%)" offset="0.703125"/><stop stop-opacity="1" stop-color="rgb(52.296448%, 82.618713%, 62.052917%)" offset="0.707031"/><stop stop-opacity="1" stop-color="rgb(53.048706%, 83.16803%, 62.322998%)" offset="0.710938"/><stop stop-opacity="1" stop-color="rgb(53.799438%, 83.71582%, 62.591553%)" offset="0.714844"/><stop stop-opacity="1" stop-color="rgb(54.550171%, 84.265137%, 62.861633%)" offset="0.71875"/><stop stop-opacity="1" stop-color="rgb(55.300903%, 84.814453%, 63.130188%)" offset="0.722656"/><stop stop-opacity="1" stop-color="rgb(56.051636%, 85.36377%, 63.400269%)" offset="0.726563"/><stop stop-opacity="1" stop-color="rgb(56.802368%, 85.91156%, 63.670349%)" offset="0.730469"/><stop stop-opacity="1" stop-color="rgb(57.554626%, 86.460876%, 63.94043%)" offset="0.734375"/><stop stop-opacity="1" stop-color="rgb(58.305359%, 87.010193%, 64.208984%)" offset="0.738281"/><stop stop-opacity="1" stop-color="rgb(59.056091%, 87.559509%, 64.479065%)" offset="0.742188"/><stop stop-opacity="1" stop-color="rgb(59.806824%, 88.1073%, 64.74762%)" offset="0.746094"/><stop stop-opacity="1" stop-color="rgb(60.557556%, 88.656616%, 65.0177%)" offset="0.75"/><stop stop-opacity="1" stop-color="rgb(61.308289%, 89.204407%, 65.287781%)" offset="0.753906"/><stop stop-opacity="1" stop-color="rgb(62.060547%, 89.753723%, 65.557861%)" offset="0.757812"/><stop stop-opacity="1" stop-color="rgb(62.811279%, 90.30304%, 65.826416%)" offset="0.761719"/><stop stop-opacity="1" stop-color="rgb(63.562012%, 90.852356%, 66.096497%)" offset="0.765625"/><stop stop-opacity="1" stop-color="rgb(64.312744%, 91.400146%, 66.365051%)" offset="0.769531"/><stop stop-opacity="1" stop-color="rgb(65.063477%, 91.949463%, 66.635132%)" offset="0.773438"/><stop stop-opacity="1" stop-color="rgb(65.814209%, 92.497253%, 66.905212%)" offset="0.777344"/><stop stop-opacity="1" stop-color="rgb(66.566467%, 93.04657%, 67.175293%)" offset="0.78125"/><stop stop-opacity="1" stop-color="rgb(67.3172%, 93.595886%, 67.443848%)" offset="0.785156"/><stop stop-opacity="1" stop-color="rgb(68.067932%, 94.145203%, 67.713928%)" offset="0.789062"/><stop stop-opacity="1" stop-color="rgb(68.818665%, 94.692993%, 67.982483%)" offset="0.792969"/><stop stop-opacity="1" stop-color="rgb(69.569397%, 95.24231%, 68.252563%)" offset="0.796875"/><stop stop-opacity="1" stop-color="rgb(70.320129%, 95.7901%, 68.522644%)" offset="0.800781"/><stop stop-opacity="1" stop-color="rgb(71.072388%, 96.339417%, 68.792725%)" offset="0.804688"/><stop stop-opacity="1" stop-color="rgb(71.82312%, 96.888733%, 69.061279%)" offset="0.808594"/><stop stop-opacity="1" stop-color="rgb(72.573853%, 97.438049%, 69.33136%)" offset="0.8125"/><stop stop-opacity="1" stop-color="rgb(73.324585%, 97.98584%, 69.599915%)" offset="0.816406"/><stop stop-opacity="1" stop-color="rgb(74.076843%, 98.535156%, 69.869995%)" offset="0.820313"/><stop stop-opacity="1" stop-color="rgb(74.827576%, 99.082947%, 70.13855%)" offset="0.824219"/><stop stop-opacity="1" stop-color="rgb(75.578308%, 99.632263%, 70.40863%)" offset="0.828125"/><stop stop-opacity="1" stop-color="rgb(75.828552%, 99.815369%, 70.498657%)" offset="0.832031"/><stop stop-opacity="1" stop-color="rgb(76.078796%, 100%, 70.588684%)" offset="0.835938"/><stop stop-opacity="1" stop-color="rgb(76.078796%, 100%, 70.588684%)" offset="0.84375"/><stop stop-opacity="1" stop-color="rgb(76.078796%, 100%, 70.588684%)" offset="0.875"/><stop stop-opacity="1" stop-color="rgb(76.078796%, 100%, 70.588684%)" offset="1"/></linearGradient><clipPath id="97de5aefd5"><rect x="0" width="240" y="0" height="60"/></clipPath><clipPath id="cfe8f3f14d"><path d="M 0.992188 0 L 240 0 L 240 60 L 0.992188 60 Z M 0.992188 0 " clip-rule="nonzero"/></clipPath><clipPath id="c0a693260b"><rect x="0" width="240" y="0" height="60"/></clipPath><clipPath id="cdf73eb8fc"><rect x="0" width="240" y="0" height="60"/></clipPath><mask id="d646012916"><g filter="url(#4463f6546a)"><g transform="matrix(1, 0, 0, 1, 0, -0.000000000000001479)"><g clip-path="url(#cdf73eb8fc)"><g clip-path="url(#cfe8f3f14d)"><g transform="matrix(1, 0, 0, 1, 0, -0.000000000000001479)"><g clip-path="url(#c0a693260b)"><g fill="#000000" fill-opacity="1"><g transform="translate(57.242071, 40.498936)"><g><path d="M 2.515625 0 L 2.515625 -19.984375 L 6.75 -19.984375 L 6.75 -3.5 L 14.859375 -3.5 L 14.859375 0 Z M 2.515625 0 "/></g></g></g><g fill="#000000" fill-opacity="1"><g transform="translate(73.058229, 40.498936)"><g><path d="M 11.890625 0 L 11.09375 -2.078125 L 10.984375 -2.078125 C 10.273438 -1.191406 9.550781 -0.578125 8.8125 -0.234375 C 8.070312 0.109375 7.101562 0.28125 5.90625 0.28125 C 4.4375 0.28125 3.28125 -0.140625 2.4375 -0.984375 C 1.59375 -1.828125 1.171875 -3.019531 1.171875 -4.5625 C 1.171875 -6.1875 1.738281 -7.382812 2.875 -8.15625 C 4.007812 -8.925781 5.722656 -9.351562 8.015625 -9.4375 L 10.671875 -9.515625 L 10.671875 -10.1875 C 10.671875 -11.738281 9.875 -12.515625 8.28125 -12.515625 C 7.0625 -12.515625 5.628906 -12.144531 3.984375 -11.40625 L 2.59375 -14.21875 C 4.351562 -15.132812 6.304688 -15.59375 8.453125 -15.59375 C 10.503906 -15.59375 12.078125 -15.144531 13.171875 -14.25 C 14.265625 -13.363281 14.8125 -12.007812 14.8125 -10.1875 L 14.8125 0 Z M 10.671875 -7.078125 L 9.046875 -7.03125 C 7.835938 -6.988281 6.9375 -6.765625 6.34375 -6.359375 C 5.75 -5.960938 5.453125 -5.359375 5.453125 -4.546875 C 5.453125 -3.367188 6.128906 -2.78125 7.484375 -2.78125 C 8.441406 -2.78125 9.210938 -3.054688 9.796875 -3.609375 C 10.378906 -4.160156 10.671875 -4.898438 10.671875 -5.828125 Z M 10.671875 -7.078125 "/></g></g></g><g fill="#000000" fill-opacity="1"><g transform="translate(89.967984, 40.498936)"><g><path d="M 8.625 -3.046875 C 9.351562 -3.046875 10.226562 -3.207031 11.25 -3.53125 L 11.25 -0.421875 C 10.207031 0.046875 8.929688 0.28125 7.421875 0.28125 C 5.753906 0.28125 4.539062 -0.140625 3.78125 -0.984375 C 3.019531 -1.828125 2.640625 -3.09375 2.640625 -4.78125 L 2.640625 -12.15625 L 0.640625 -12.15625 L 0.640625 -13.921875 L 2.9375 -15.3125 L 4.140625 -18.546875 L 6.8125 -18.546875 L 6.8125 -15.28125 L 11.09375 -15.28125 L 11.09375 -12.15625 L 6.8125 -12.15625 L 6.8125 -4.78125 C 6.8125 -4.1875 6.976562 -3.75 7.3125 -3.46875 C 7.644531 -3.1875 8.082031 -3.046875 8.625 -3.046875 Z M 8.625 -3.046875 "/></g></g></g><g fill="#000000" fill-opacity="1"><g transform="translate(102.12059, 40.498936)"><g><path d="M 8.515625 -12.609375 C 7.628906 -12.609375 6.9375 -12.328125 6.4375 -11.765625 C 5.9375 -11.203125 5.648438 -10.40625 5.578125 -9.375 L 11.4375 -9.375 C 11.414062 -10.40625 11.144531 -11.203125 10.625 -11.765625 C 10.101562 -12.328125 9.398438 -12.609375 8.515625 -12.609375 Z M 9.109375 0.28125 C 6.648438 0.28125 4.726562 -0.394531 3.34375 -1.75 C 1.957031 -3.113281 1.265625 -5.039062 1.265625 -7.53125 C 1.265625 -10.09375 1.898438 -12.070312 3.171875 -13.46875 C 4.453125 -14.875 6.222656 -15.578125 8.484375 -15.578125 C 10.648438 -15.578125 12.332031 -14.957031 13.53125 -13.71875 C 14.738281 -12.488281 15.34375 -10.789062 15.34375 -8.625 L 15.34375 -6.609375 L 5.484375 -6.609375 C 5.523438 -5.421875 5.875 -4.492188 6.53125 -3.828125 C 7.1875 -3.160156 8.109375 -2.828125 9.296875 -2.828125 C 10.210938 -2.828125 11.082031 -2.921875 11.90625 -3.109375 C 12.726562 -3.304688 13.585938 -3.613281 14.484375 -4.03125 L 14.484375 -0.8125 C 13.753906 -0.445312 12.972656 -0.175781 12.140625 0 C 11.304688 0.1875 10.296875 0.28125 9.109375 0.28125 Z M 9.109375 0.28125 "/></g></g></g><g fill="#000000" fill-opacity="1"><g transform="translate(118.66125, 40.498936)"><g><path d="M 10.71875 -15.578125 C 11.28125 -15.578125 11.75 -15.535156 12.125 -15.453125 L 11.8125 -11.546875 C 11.476562 -11.628906 11.066406 -11.671875 10.578125 -11.671875 C 9.253906 -11.671875 8.21875 -11.328125 7.46875 -10.640625 C 6.726562 -9.960938 6.359375 -9.007812 6.359375 -7.78125 L 6.359375 0 L 2.1875 0 L 2.1875 -15.28125 L 5.34375 -15.28125 L 5.96875 -12.71875 L 6.171875 -12.71875 C 6.640625 -13.570312 7.273438 -14.257812 8.078125 -14.78125 C 8.890625 -15.3125 9.769531 -15.578125 10.71875 -15.578125 Z M 10.71875 -15.578125 "/></g></g></g><g fill="#000000" fill-opacity="1"><g transform="translate(131.37432, 40.498936)"><g><path d="M 11.890625 0 L 11.09375 -2.078125 L 10.984375 -2.078125 C 10.273438 -1.191406 9.550781 -0.578125 8.8125 -0.234375 C 8.070312 0.109375 7.101562 0.28125 5.90625 0.28125 C 4.4375 0.28125 3.28125 -0.140625 2.4375 -0.984375 C 1.59375 -1.828125 1.171875 -3.019531 1.171875 -4.5625 C 1.171875 -6.1875 1.738281 -7.382812 2.875 -8.15625 C 4.007812 -8.925781 5.722656 -9.351562 8.015625 -9.4375 L 10.671875 -9.515625 L 10.671875 -10.1875 C 10.671875 -11.738281 9.875 -12.515625 8.28125 -12.515625 C 7.0625 -12.515625 5.628906 -12.144531 3.984375 -11.40625 L 2.59375 -14.21875 C 4.351562 -15.132812 6.304688 -15.59375 8.453125 -15.59375 C 10.503906 -15.59375 12.078125 -15.144531 13.171875 -14.25 C 14.265625 -13.363281 14.8125 -12.007812 14.8125 -10.1875 L 14.8125 0 Z M 10.671875 -7.078125 L 9.046875 -7.03125 C 7.835938 -6.988281 6.9375 -6.765625 6.34375 -6.359375 C 5.75 -5.960938 5.453125 -5.359375 5.453125 -4.546875 C 5.453125 -3.367188 6.128906 -2.78125 7.484375 -2.78125 C 8.441406 -2.78125 9.210938 -3.054688 9.796875 -3.609375 C 10.378906 -4.160156 10.671875 -4.898438 10.671875 -5.828125 Z M 10.671875 -7.078125 "/></g></g></g><g fill="#000000" fill-opacity="1"><g transform="translate(148.284075, 40.498936)"><g><path d="M 6.359375 0 L 2.1875 0 L 2.1875 -21.28125 L 6.359375 -21.28125 Z M 6.359375 0 "/></g></g></g><g fill="#000000" fill-opacity="1"><g transform="translate(156.82781, 40.498936)"><g><path d="M 13.921875 -19.984375 L 18.203125 -19.984375 L 11.40625 0 L 6.78125 0 L 0 -19.984375 L 4.28125 -19.984375 L 8.046875 -8.09375 C 8.253906 -7.394531 8.46875 -6.578125 8.6875 -5.640625 C 8.914062 -4.703125 9.054688 -4.050781 9.109375 -3.6875 C 9.203125 -4.53125 9.539062 -6 10.125 -8.09375 Z M 13.921875 -19.984375 "/></g></g></g><g fill="#000000" fill-opacity="1"><g transform="translate(175.022542, 40.498936)"><g><path d="M 8.515625 -12.609375 C 7.628906 -12.609375 6.9375 -12.328125 6.4375 -11.765625 C 5.9375 -11.203125 5.648438 -10.40625 5.578125 -9.375 L 11.4375 -9.375 C 11.414062 -10.40625 11.144531 -11.203125 10.625 -11.765625 C 10.101562 -12.328125 9.398438 -12.609375 8.515625 -12.609375 Z M 9.109375 0.28125 C 6.648438 0.28125 4.726562 -0.394531 3.34375 -1.75 C 1.957031 -3.113281 1.265625 -5.039062 1.265625 -7.53125 C 1.265625 -10.09375 1.898438 -12.070312 3.171875 -13.46875 C 4.453125 -14.875 6.222656 -15.578125 8.484375 -15.578125 C 10.648438 -15.578125 12.332031 -14.957031 13.53125 -13.71875 C 14.738281 -12.488281 15.34375 -10.789062 15.34375 -8.625 L 15.34375 -6.609375 L 5.484375 -6.609375 C 5.523438 -5.421875 5.875 -4.492188 6.53125 -3.828125 C 7.1875 -3.160156 8.109375 -2.828125 9.296875 -2.828125 C 10.210938 -2.828125 11.082031 -2.921875 11.90625 -3.109375 C 12.726562 -3.304688 13.585938 -3.613281 14.484375 -4.03125 L 14.484375 -0.8125 C 13.753906 -0.445312 12.972656 -0.175781 12.140625 0 C 11.304688 0.1875 10.296875 0.28125 9.109375 0.28125 Z M 9.109375 0.28125 "/></g></g></g><g fill="#000000" fill-opacity="1"><g transform="translate(191.563202, 40.498936)"><g><path d="M 10.71875 -15.578125 C 11.28125 -15.578125 11.75 -15.535156 12.125 -15.453125 L 11.8125 -11.546875 C 11.476562 -11.628906 11.066406 -11.671875 10.578125 -11.671875 C 9.253906 -11.671875 8.21875 -11.328125 7.46875 -10.640625 C 6.726562 -9.960938 6.359375 -9.007812 6.359375 -7.78125 L 6.359375 0 L 2.1875 0 L 2.1875 -15.28125 L 5.34375 -15.28125 L 5.96875 -12.71875 L 6.171875 -12.71875 C 6.640625 -13.570312 7.273438 -14.257812 8.078125 -14.78125 C 8.890625 -15.3125 9.769531 -15.578125 10.71875 -15.578125 Z M 10.71875 -15.578125 "/></g></g></g><g fill="#000000" fill-opacity="1"><g transform="translate(204.276271, 40.498936)"><g><path d="M 7.03125 0.28125 C 5.226562 0.28125 3.816406 -0.414062 2.796875 -1.8125 C 1.773438 -3.207031 1.265625 -5.140625 1.265625 -7.609375 C 1.265625 -10.117188 1.785156 -12.070312 2.828125 -13.46875 C 3.867188 -14.875 5.304688 -15.578125 7.140625 -15.578125 C 9.054688 -15.578125 10.523438 -14.828125 11.546875 -13.328125 L 11.671875 -13.328125 C 11.460938 -14.472656 11.359375 -15.488281 11.359375 -16.375 L 11.359375 -21.28125 L 15.546875 -21.28125 L 15.546875 0 L 12.34375 0 L 11.546875 -1.984375 L 11.359375 -1.984375 C 10.410156 -0.472656 8.96875 0.28125 7.03125 0.28125 Z M 8.484375 -3.046875 C 9.554688 -3.046875 10.335938 -3.351562 10.828125 -3.96875 C 11.328125 -4.59375 11.601562 -5.648438 11.65625 -7.140625 L 11.65625 -7.59375 C 11.65625 -9.226562 11.398438 -10.398438 10.890625 -11.109375 C 10.378906 -11.828125 9.554688 -12.1875 8.421875 -12.1875 C 7.492188 -12.1875 6.769531 -11.789062 6.25 -11 C 5.738281 -10.207031 5.484375 -9.0625 5.484375 -7.5625 C 5.484375 -6.0625 5.742188 -4.929688 6.265625 -4.171875 C 6.785156 -3.421875 7.523438 -3.046875 8.484375 -3.046875 Z M 8.484375 -3.046875 "/></g></g></g><g fill="#000000" fill-opacity="1"><g transform="translate(221.992549, 40.498936)"><g><path d="M 8.515625 -12.609375 C 7.628906 -12.609375 6.9375 -12.328125 6.4375 -11.765625 C 5.9375 -11.203125 5.648438 -10.40625 5.578125 -9.375 L 11.4375 -9.375 C 11.414062 -10.40625 11.144531 -11.203125 10.625 -11.765625 C 10.101562 -12.328125 9.398438 -12.609375 8.515625 -12.609375 Z M 9.109375 0.28125 C 6.648438 0.28125 4.726562 -0.394531 3.34375 -1.75 C 1.957031 -3.113281 1.265625 -5.039062 1.265625 -7.53125 C 1.265625 -10.09375 1.898438 -12.070312 3.171875 -13.46875 C 4.453125 -14.875 6.222656 -15.578125 8.484375 -15.578125 C 10.648438 -15.578125 12.332031 -14.957031 13.53125 -13.71875 C 14.738281 -12.488281 15.34375 -10.789062 15.34375 -8.625 L 15.34375 -6.609375 L 5.484375 -6.609375 C 5.523438 -5.421875 5.875 -4.492188 6.53125 -3.828125 C 7.1875 -3.160156 8.109375 -2.828125 9.296875 -2.828125 C 10.210938 -2.828125 11.082031 -2.921875 11.90625 -3.109375 C 12.726562 -3.304688 13.585938 -3.613281 14.484375 -4.03125 L 14.484375 -0.8125 C 13.753906 -0.445312 12.972656 -0.175781 12.140625 0 C 11.304688 0.1875 10.296875 0.28125 9.109375 0.28125 Z M 9.109375 0.28125 "/></g></g></g></g></g></g></g></g></g></mask><clipPath id="8b7adb424a"><path d="M 0.992188 0 L 240 0 L 240 60 L 0.992188 60 Z M 0.992188 0 " clip-rule="nonzero"/></clipPath><clipPath id="49ca9057ba"><rect x="0" width="240" y="0" height="60"/></clipPath><clipPath id="b2ae31e141"><rect x="0" width="240" y="0" height="60"/></clipPath><clipPath id="ede4ba8a36"><path d="M 38.824219 19.703125 L 187.324219 19.703125 L 187.324219 60 L 38.824219 60 Z M 38.824219 19.703125 " clip-rule="nonzero"/></clipPath><clipPath id="0a4aa89168"><path d="M 0.824219 0.703125 L 149.324219 0.703125 L 149.324219 41 L 0.824219 41 Z M 0.824219 0.703125 " clip-rule="nonzero"/></clipPath><clipPath id="e98a0ed555"><path d="M 0.824219 0.703125 L 148.574219 0.703125 L 148.574219 41 L 0.824219 41 Z M 0.824219 0.703125 " clip-rule="nonzero"/></clipPath><linearGradient x1="71.953003" gradientTransform="matrix(0.749176, 0, 0, 0.746662, 20.803953, 20.613382)" y1="-26.667" x2="71.953003" gradientUnits="userSpaceOnUse" y2="27.303663" id="b6c1df88b8"><stop stop-opacity="1" stop-color="rgb(42.749023%, 45.489502%, 52.549744%)" offset="0"/><stop stop-opacity="1" stop-color="rgb(42.749023%, 45.489502%, 52.549744%)" offset="0.25"/><stop stop-opacity="1" stop-color="rgb(42.749023%, 45.489502%, 52.549744%)" offset="0.375"/><stop stop-opacity="1" stop-color="rgb(42.749023%, 45.489502%, 52.549744%)" offset="0.4375"/><stop stop-opacity="1" stop-color="rgb(42.749023%, 45.489502%, 52.549744%)" offset="0.46875"/><stop stop-opacity="1" stop-color="rgb(42.749023%, 45.489502%, 52.549744%)" offset="0.484375"/><stop stop-opacity="1" stop-color="rgb(42.749023%, 45.489502%, 52.549744%)" offset="0.492188"/><stop stop-opacity="1" stop-color="rgb(42.405701%, 45.132446%, 52.149963%)" offset="0.496094"/><stop stop-opacity="1" stop-color="rgb(42.062378%, 44.775391%, 51.751709%)" offset="0.5"/><stop stop-opacity="1" stop-color="rgb(41.607666%, 44.302368%, 51.223755%)" offset="0.503906"/><stop stop-opacity="1" stop-color="rgb(41.152954%, 43.829346%, 50.695801%)" offset="0.507812"/><stop stop-opacity="1" stop-color="rgb(40.698242%, 43.356323%, 50.166321%)" offset="0.511719"/><stop stop-opacity="1" stop-color="rgb(40.24353%, 42.883301%, 49.638367%)" offset="0.515625"/><stop stop-opacity="1" stop-color="rgb(39.788818%, 42.410278%, 49.110413%)" offset="0.519531"/><stop stop-opacity="1" stop-color="rgb(39.334106%, 41.937256%, 48.582458%)" offset="0.523438"/><stop stop-opacity="1" stop-color="rgb(38.879395%, 41.462708%, 48.054504%)" offset="0.527344"/><stop stop-opacity="1" stop-color="rgb(38.424683%, 40.989685%, 47.52655%)" offset="0.53125"/><stop stop-opacity="1" stop-color="rgb(37.969971%, 40.516663%, 46.99707%)" offset="0.535156"/><stop stop-opacity="1" stop-color="rgb(37.515259%, 40.04364%, 46.469116%)" offset="0.539062"/><stop stop-opacity="1" stop-color="rgb(37.059021%, 39.570618%, 45.941162%)" offset="0.542969"/><stop stop-opacity="1" stop-color="rgb(36.604309%, 39.097595%, 45.413208%)" offset="0.546875"/><stop stop-opacity="1" stop-color="rgb(36.149597%, 38.624573%, 44.883728%)" offset="0.550781"/><stop stop-opacity="1" stop-color="rgb(35.694885%, 38.15155%, 44.355774%)" offset="0.554688"/><stop stop-opacity="1" stop-color="rgb(35.240173%, 37.678528%, 43.82782%)" offset="0.558594"/><stop stop-opacity="1" stop-color="rgb(34.785461%, 37.205505%, 43.299866%)" offset="0.5625"/><stop stop-opacity="1" stop-color="rgb(34.33075%, 36.732483%, 42.771912%)" offset="0.566406"/><stop stop-opacity="1" stop-color="rgb(33.876038%, 36.25946%, 42.243958%)" offset="0.570312"/><stop stop-opacity="1" stop-color="rgb(33.421326%, 35.786438%, 41.714478%)" offset="0.574219"/><stop stop-opacity="1" stop-color="rgb(32.966614%, 35.313416%, 41.186523%)" offset="0.578125"/><stop stop-opacity="1" stop-color="rgb(32.511902%, 34.840393%, 40.658569%)" offset="0.582031"/><stop stop-opacity="1" stop-color="rgb(32.05719%, 34.367371%, 40.130615%)" offset="0.585938"/><stop stop-opacity="1" stop-color="rgb(31.602478%, 33.894348%, 39.602661%)" offset="0.589844"/><stop stop-opacity="1" stop-color="rgb(31.147766%, 33.421326%, 39.074707%)" offset="0.59375"/><stop stop-opacity="1" stop-color="rgb(30.693054%, 32.948303%, 38.545227%)" offset="0.597656"/><stop stop-opacity="1" stop-color="rgb(30.238342%, 32.475281%, 38.017273%)" offset="0.601562"/><stop stop-opacity="1" stop-color="rgb(29.78363%, 32.002258%, 37.489319%)" offset="0.605469"/><stop stop-opacity="1" stop-color="rgb(29.328918%, 31.529236%, 36.961365%)" offset="0.609375"/><stop stop-opacity="1" stop-color="rgb(28.874207%, 31.056213%, 36.433411%)" offset="0.613281"/><stop stop-opacity="1" stop-color="rgb(28.419495%, 30.583191%, 35.905457%)" offset="0.617188"/><stop stop-opacity="1" stop-color="rgb(27.963257%, 30.110168%, 35.375977%)" offset="0.621094"/><stop stop-opacity="1" stop-color="rgb(27.508545%, 29.637146%, 34.848022%)" offset="0.625"/><stop stop-opacity="1" stop-color="rgb(27.053833%, 29.164124%, 34.320068%)" offset="0.628906"/><stop stop-opacity="1" stop-color="rgb(26.599121%, 28.691101%, 33.792114%)" offset="0.632812"/><stop stop-opacity="1" stop-color="rgb(26.144409%, 28.218079%, 33.262634%)" offset="0.636719"/><stop stop-opacity="1" stop-color="rgb(25.689697%, 27.745056%, 32.73468%)" offset="0.640625"/><stop stop-opacity="1" stop-color="rgb(25.234985%, 27.272034%, 32.206726%)" offset="0.644531"/><stop stop-opacity="1" stop-color="rgb(24.780273%, 26.799011%, 31.678772%)" offset="0.648438"/><stop stop-opacity="1" stop-color="rgb(24.325562%, 26.325989%, 31.150818%)" offset="0.652344"/><stop stop-opacity="1" stop-color="rgb(23.87085%, 25.852966%, 30.622864%)" offset="0.65625"/><stop stop-opacity="1" stop-color="rgb(23.416138%, 25.379944%, 30.093384%)" offset="0.660156"/><stop stop-opacity="1" stop-color="rgb(22.961426%, 24.906921%, 29.56543%)" offset="0.664062"/><stop stop-opacity="1" stop-color="rgb(22.506714%, 24.433899%, 29.037476%)" offset="0.667969"/><stop stop-opacity="1" stop-color="rgb(22.052002%, 23.960876%, 28.509521%)" offset="0.671875"/><stop stop-opacity="1" stop-color="rgb(21.59729%, 23.486328%, 27.981567%)" offset="0.675781"/><stop stop-opacity="1" stop-color="rgb(21.142578%, 23.013306%, 27.453613%)" offset="0.679688"/><stop stop-opacity="1" stop-color="rgb(20.687866%, 22.540283%, 26.924133%)" offset="0.683594"/><stop stop-opacity="1" stop-color="rgb(20.233154%, 22.067261%, 26.396179%)" offset="0.6875"/><stop stop-opacity="1" stop-color="rgb(19.776917%, 21.594238%, 25.868225%)" offset="0.691406"/><stop stop-opacity="1" stop-color="rgb(19.322205%, 21.121216%, 25.340271%)" offset="0.695312"/><stop stop-opacity="1" stop-color="rgb(18.867493%, 20.648193%, 24.812317%)" offset="0.699219"/><stop stop-opacity="1" stop-color="rgb(18.412781%, 20.175171%, 24.284363%)" offset="0.703125"/><stop stop-opacity="1" stop-color="rgb(17.958069%, 19.702148%, 23.754883%)" offset="0.707031"/><stop stop-opacity="1" stop-color="rgb(17.503357%, 19.229126%, 23.226929%)" offset="0.710938"/><stop stop-opacity="1" stop-color="rgb(17.048645%, 18.756104%, 22.698975%)" offset="0.714844"/><stop stop-opacity="1" stop-color="rgb(16.593933%, 18.283081%, 22.171021%)" offset="0.71875"/><stop stop-opacity="1" stop-color="rgb(16.139221%, 17.810059%, 21.643066%)" offset="0.722656"/><stop stop-opacity="1" stop-color="rgb(15.684509%, 17.337036%, 21.115112%)" offset="0.726562"/><stop stop-opacity="1" stop-color="rgb(15.229797%, 16.864014%, 20.585632%)" offset="0.730469"/><stop stop-opacity="1" stop-color="rgb(14.775085%, 16.390991%, 20.057678%)" offset="0.734375"/><stop stop-opacity="1" stop-color="rgb(14.320374%, 15.917969%, 19.529724%)" offset="0.738281"/><stop stop-opacity="1" stop-color="rgb(13.865662%, 15.444946%, 19.00177%)" offset="0.742188"/><stop stop-opacity="1" stop-color="rgb(13.41095%, 14.971924%, 18.47229%)" offset="0.746094"/><stop stop-opacity="1" stop-color="rgb(12.956238%, 14.498901%, 17.944336%)" offset="0.75"/><stop stop-opacity="1" stop-color="rgb(12.501526%, 14.025879%, 17.416382%)" offset="0.753906"/><stop stop-opacity="1" stop-color="rgb(12.046814%, 13.552856%, 16.888428%)" offset="0.757812"/><stop stop-opacity="1" stop-color="rgb(11.592102%, 13.079834%, 16.360474%)" offset="0.761719"/><stop stop-opacity="1" stop-color="rgb(11.13739%, 12.606812%, 15.83252%)" offset="0.765625"/><stop stop-opacity="1" stop-color="rgb(10.681152%, 12.133789%, 15.30304%)" offset="0.769531"/><stop stop-opacity="1" stop-color="rgb(10.22644%, 11.660767%, 14.775085%)" offset="0.773438"/><stop stop-opacity="1" stop-color="rgb(9.771729%, 11.187744%, 14.247131%)" offset="0.777344"/><stop stop-opacity="1" stop-color="rgb(9.317017%, 10.714722%, 13.719177%)" offset="0.78125"/><stop stop-opacity="1" stop-color="rgb(8.862305%, 10.241699%, 13.191223%)" offset="0.785156"/><stop stop-opacity="1" stop-color="rgb(8.407593%, 9.768677%, 12.663269%)" offset="0.789063"/><stop stop-opacity="1" stop-color="rgb(7.952881%, 9.295654%, 12.133789%)" offset="0.792969"/><stop stop-opacity="1" stop-color="rgb(7.498169%, 8.822632%, 11.605835%)" offset="0.796875"/><stop stop-opacity="1" stop-color="rgb(7.043457%, 8.349609%, 11.077881%)" offset="0.800781"/><stop stop-opacity="1" stop-color="rgb(6.588745%, 7.876587%, 10.549927%)" offset="0.804688"/><stop stop-opacity="1" stop-color="rgb(6.134033%, 7.403564%, 10.021973%)" offset="0.808594"/><stop stop-opacity="1" stop-color="rgb(5.679321%, 6.930542%, 9.494019%)" offset="0.8125"/><stop stop-opacity="1" stop-color="rgb(5.224609%, 6.45752%, 8.964539%)" offset="0.816406"/><stop stop-opacity="1" stop-color="rgb(4.769897%, 5.984497%, 8.436584%)" offset="0.820313"/><stop stop-opacity="1" stop-color="rgb(4.344177%, 5.541992%, 7.9422%)" offset="0.824219"/><stop stop-opacity="1" stop-color="rgb(3.919983%, 5.099487%, 7.449341%)" offset="0.828125"/><stop stop-opacity="1" stop-color="rgb(3.919983%, 5.099487%, 7.449341%)" offset="0.84375"/><stop stop-opacity="1" stop-color="rgb(3.919983%, 5.099487%, 7.449341%)" offset="0.875"/><stop stop-opacity="1" stop-color="rgb(3.919983%, 5.099487%, 7.449341%)" offset="1"/></linearGradient><clipPath id="92f19072c9"><rect x="0" width="150" y="0" height="41"/></clipPath><clipPath id="59756f7e86"><path d="M 0.824219 0.703125 L 149.324219 0.703125 L 149.324219 41 L 0.824219 41 Z M 0.824219 0.703125 " clip-rule="nonzero"/></clipPath><clipPath id="14b52d8871"><rect x="0" width="150" y="0" height="41"/></clipPath><clipPath id="fdeafed5e9"><rect x="0" width="150" y="0" height="41"/></clipPath><mask id="4c44911b32"><g filter="url(#4463f6546a)"><g><g clip-path="url(#fdeafed5e9)"><g clip-path="url(#59756f7e86)"><g><g clip-path="url(#14b52d8871)"><g fill="#000000" fill-opacity="1"><g transform="translate(21.072352, 31.452134)"><g><path d="M 3.609375 -4.015625 L 6.4375 -4.015625 L 6.4375 -0.3125 C 5.976562 -0.15625 5.546875 -0.0507812 5.140625 0 C 4.734375 0.0625 4.320312 0.09375 3.90625 0.09375 C 2.820312 0.09375 1.992188 -0.21875 1.421875 -0.84375 C 0.859375 -1.476562 0.578125 -2.390625 0.578125 -3.578125 C 0.578125 -4.734375 0.90625 -5.628906 1.5625 -6.265625 C 2.226562 -6.910156 3.144531 -7.234375 4.3125 -7.234375 C 5.039062 -7.234375 5.75 -7.085938 6.4375 -6.796875 L 5.921875 -5.59375 C 5.398438 -5.851562 4.859375 -5.984375 4.296875 -5.984375 C 3.648438 -5.984375 3.128906 -5.757812 2.734375 -5.3125 C 2.335938 -4.875 2.140625 -4.285156 2.140625 -3.546875 C 2.140625 -2.773438 2.296875 -2.179688 2.609375 -1.765625 C 2.929688 -1.359375 3.394531 -1.15625 4 -1.15625 C 4.3125 -1.15625 4.632812 -1.191406 4.96875 -1.265625 L 4.96875 -2.75 L 3.609375 -2.75 Z M 3.609375 -4.015625 "/></g></g></g><g fill="#000000" fill-opacity="1"><g transform="translate(28.31074, 31.452134)"><g><path d="M 3.046875 -4.5 C 2.722656 -4.5 2.472656 -4.398438 2.296875 -4.203125 C 2.117188 -4.003906 2.019531 -3.71875 2 -3.34375 L 4.078125 -3.34375 C 4.078125 -3.71875 3.984375 -4.003906 3.796875 -4.203125 C 3.609375 -4.398438 3.359375 -4.5 3.046875 -4.5 Z M 3.25 0.09375 C 2.375 0.09375 1.6875 -0.144531 1.1875 -0.625 C 0.695312 -1.113281 0.453125 -1.800781 0.453125 -2.6875 C 0.453125 -3.601562 0.679688 -4.3125 1.140625 -4.8125 C 1.597656 -5.3125 2.226562 -5.5625 3.03125 -5.5625 C 3.800781 -5.5625 4.398438 -5.34375 4.828125 -4.90625 C 5.265625 -4.46875 5.484375 -3.859375 5.484375 -3.078125 L 5.484375 -2.359375 L 1.953125 -2.359375 C 1.972656 -1.929688 2.097656 -1.597656 2.328125 -1.359375 C 2.566406 -1.128906 2.898438 -1.015625 3.328125 -1.015625 C 3.648438 -1.015625 3.957031 -1.046875 4.25 -1.109375 C 4.539062 -1.179688 4.847656 -1.289062 5.171875 -1.4375 L 5.171875 -0.28125 C 4.910156 -0.15625 4.628906 -0.0625 4.328125 0 C 4.035156 0.0625 3.675781 0.09375 3.25 0.09375 Z M 3.25 0.09375 "/></g></g></g><g fill="#000000" fill-opacity="1"><g transform="translate(34.216635, 31.452134)"><g><path d="M 4.59375 -1.625 C 4.59375 -1.0625 4.394531 -0.632812 4 -0.34375 C 3.613281 -0.0507812 3.035156 0.09375 2.265625 0.09375 C 1.867188 0.09375 1.53125 0.0664062 1.25 0.015625 C 0.96875 -0.0351562 0.703125 -0.113281 0.453125 -0.21875 L 0.453125 -1.453125 C 0.734375 -1.316406 1.046875 -1.203125 1.390625 -1.109375 C 1.742188 -1.023438 2.050781 -0.984375 2.3125 -0.984375 C 2.851562 -0.984375 3.125 -1.140625 3.125 -1.453125 C 3.125 -1.578125 3.085938 -1.675781 3.015625 -1.75 C 2.941406 -1.820312 2.816406 -1.90625 2.640625 -2 C 2.460938 -2.09375 2.226562 -2.195312 1.9375 -2.3125 C 1.519531 -2.488281 1.210938 -2.648438 1.015625 -2.796875 C 0.816406 -2.953125 0.671875 -3.125 0.578125 -3.3125 C 0.492188 -3.507812 0.453125 -3.75 0.453125 -4.03125 C 0.453125 -4.519531 0.640625 -4.894531 1.015625 -5.15625 C 1.390625 -5.425781 1.921875 -5.5625 2.609375 -5.5625 C 3.265625 -5.5625 3.90625 -5.414062 4.53125 -5.125 L 4.078125 -4.0625 C 3.804688 -4.175781 3.550781 -4.269531 3.3125 -4.34375 C 3.070312 -4.414062 2.832031 -4.453125 2.59375 -4.453125 C 2.144531 -4.453125 1.921875 -4.335938 1.921875 -4.109375 C 1.921875 -3.972656 1.992188 -3.851562 2.140625 -3.75 C 2.285156 -3.65625 2.597656 -3.515625 3.078125 -3.328125 C 3.503906 -3.148438 3.816406 -2.984375 4.015625 -2.828125 C 4.210938 -2.679688 4.359375 -2.507812 4.453125 -2.3125 C 4.546875 -2.125 4.59375 -1.894531 4.59375 -1.625 Z M 4.59375 -1.625 "/></g></g></g><g fill="#000000" fill-opacity="1"><g transform="translate(39.185396, 31.452134)"><g><path d="M 3.078125 -1.09375 C 3.335938 -1.09375 3.648438 -1.148438 4.015625 -1.265625 L 4.015625 -0.15625 C 3.648438 0.0078125 3.195312 0.09375 2.65625 0.09375 C 2.0625 0.09375 1.625 -0.0546875 1.34375 -0.359375 C 1.070312 -0.660156 0.9375 -1.109375 0.9375 -1.703125 L 0.9375 -4.34375 L 0.234375 -4.34375 L 0.234375 -4.96875 L 1.046875 -5.46875 L 1.484375 -6.625 L 2.4375 -6.625 L 2.4375 -5.453125 L 3.953125 -5.453125 L 3.953125 -4.34375 L 2.4375 -4.34375 L 2.4375 -1.703125 C 2.4375 -1.492188 2.492188 -1.335938 2.609375 -1.234375 C 2.722656 -1.140625 2.878906 -1.09375 3.078125 -1.09375 Z M 3.078125 -1.09375 "/></g></g></g><g fill="#000000" fill-opacity="1"><g transform="translate(43.524526, 31.452134)"><g><path d="M 0.71875 -6.875 C 0.71875 -7.351562 0.988281 -7.59375 1.53125 -7.59375 C 2.070312 -7.59375 2.34375 -7.351562 2.34375 -6.875 C 2.34375 -6.644531 2.273438 -6.460938 2.140625 -6.328125 C 2.003906 -6.203125 1.800781 -6.140625 1.53125 -6.140625 C 0.988281 -6.140625 0.71875 -6.382812 0.71875 -6.875 Z M 2.265625 0 L 0.78125 0 L 0.78125 -5.453125 L 2.265625 -5.453125 Z M 2.265625 0 "/></g></g></g><g fill="#000000" fill-opacity="1"><g transform="translate(46.575098, 31.452134)"><g><path d="M 1.96875 -2.734375 C 1.96875 -2.191406 2.054688 -1.78125 2.234375 -1.5 C 2.410156 -1.226562 2.695312 -1.09375 3.09375 -1.09375 C 3.5 -1.09375 3.785156 -1.226562 3.953125 -1.5 C 4.128906 -1.78125 4.21875 -2.191406 4.21875 -2.734375 C 4.21875 -3.273438 4.128906 -3.679688 3.953125 -3.953125 C 3.773438 -4.222656 3.488281 -4.359375 3.09375 -4.359375 C 2.695312 -4.359375 2.410156 -4.222656 2.234375 -3.953125 C 2.054688 -3.691406 1.96875 -3.285156 1.96875 -2.734375 Z M 5.75 -2.734375 C 5.75 -1.847656 5.515625 -1.15625 5.046875 -0.65625 C 4.578125 -0.15625 3.921875 0.09375 3.078125 0.09375 C 2.554688 0.09375 2.09375 -0.0195312 1.6875 -0.25 C 1.289062 -0.476562 0.984375 -0.804688 0.765625 -1.234375 C 0.554688 -1.660156 0.453125 -2.160156 0.453125 -2.734375 C 0.453125 -3.628906 0.679688 -4.320312 1.140625 -4.8125 C 1.609375 -5.3125 2.265625 -5.5625 3.109375 -5.5625 C 3.628906 -5.5625 4.085938 -5.445312 4.484375 -5.21875 C 4.890625 -4.988281 5.203125 -4.660156 5.421875 -4.234375 C 5.640625 -3.804688 5.75 -3.304688 5.75 -2.734375 Z M 5.75 -2.734375 "/></g></g></g><g fill="#000000" fill-opacity="1"><g transform="translate(52.764085, 31.452134)"><g><path d="M 5.828125 0 L 4.328125 0 L 4.328125 -3.1875 C 4.328125 -3.582031 4.253906 -3.878906 4.109375 -4.078125 C 3.972656 -4.273438 3.753906 -4.375 3.453125 -4.375 C 3.035156 -4.375 2.734375 -4.234375 2.546875 -3.953125 C 2.359375 -3.671875 2.265625 -3.207031 2.265625 -2.5625 L 2.265625 0 L 0.78125 0 L 0.78125 -5.453125 L 1.921875 -5.453125 L 2.125 -4.765625 L 2.203125 -4.765625 C 2.367188 -5.023438 2.597656 -5.222656 2.890625 -5.359375 C 3.179688 -5.492188 3.507812 -5.5625 3.875 -5.5625 C 4.507812 -5.5625 4.992188 -5.390625 5.328125 -5.046875 C 5.660156 -4.703125 5.828125 -4.207031 5.828125 -3.5625 Z M 5.828125 0 "/></g></g></g><g fill="#000000" fill-opacity="1"><g transform="translate(59.333783, 31.452134)"><g><path d="M 4.25 0 L 3.953125 -0.75 L 3.921875 -0.75 C 3.671875 -0.425781 3.410156 -0.203125 3.140625 -0.078125 C 2.878906 0.0351562 2.535156 0.09375 2.109375 0.09375 C 1.585938 0.09375 1.175781 -0.0507812 0.875 -0.34375 C 0.570312 -0.644531 0.421875 -1.070312 0.421875 -1.625 C 0.421875 -2.207031 0.625 -2.632812 1.03125 -2.90625 C 1.4375 -3.1875 2.046875 -3.34375 2.859375 -3.375 L 3.8125 -3.40625 L 3.8125 -3.640625 C 3.8125 -4.191406 3.523438 -4.46875 2.953125 -4.46875 C 2.523438 -4.46875 2.015625 -4.335938 1.421875 -4.078125 L 0.921875 -5.078125 C 1.554688 -5.410156 2.253906 -5.578125 3.015625 -5.578125 C 3.742188 -5.578125 4.300781 -5.414062 4.6875 -5.09375 C 5.082031 -4.769531 5.28125 -4.285156 5.28125 -3.640625 L 5.28125 0 Z M 3.8125 -2.53125 L 3.234375 -2.515625 C 2.796875 -2.492188 2.472656 -2.410156 2.265625 -2.265625 C 2.054688 -2.128906 1.953125 -1.914062 1.953125 -1.625 C 1.953125 -1.195312 2.191406 -0.984375 2.671875 -0.984375 C 3.015625 -0.984375 3.289062 -1.082031 3.5 -1.28125 C 3.707031 -1.488281 3.8125 -1.753906 3.8125 -2.078125 Z M 3.8125 -2.53125 "/></g></g></g><g fill="#000000" fill-opacity="1"><g transform="translate(65.371468, 31.452134)"><g/></g></g><g fill="#000000" fill-opacity="1"><g transform="translate(67.96811, 31.452134)"><g><path d="M 3.078125 -1.09375 C 3.335938 -1.09375 3.648438 -1.148438 4.015625 -1.265625 L 4.015625 -0.15625 C 3.648438 0.0078125 3.195312 0.09375 2.65625 0.09375 C 2.0625 0.09375 1.625 -0.0546875 1.34375 -0.359375 C 1.070312 -0.660156 0.9375 -1.109375 0.9375 -1.703125 L 0.9375 -4.34375 L 0.234375 -4.34375 L 0.234375 -4.96875 L 1.046875 -5.46875 L 1.484375 -6.625 L 2.4375 -6.625 L 2.4375 -5.453125 L 3.953125 -5.453125 L 3.953125 -4.34375 L 2.4375 -4.34375 L 2.4375 -1.703125 C 2.4375 -1.492188 2.492188 -1.335938 2.609375 -1.234375 C 2.722656 -1.140625 2.878906 -1.09375 3.078125 -1.09375 Z M 3.078125 -1.09375 "/></g></g></g><g fill="#000000" fill-opacity="1"><g transform="translate(72.30724, 31.452134)"><g><path d="M 4.65625 0 L 4.453125 -0.703125 L 4.375 -0.703125 C 4.207031 -0.441406 3.976562 -0.242188 3.6875 -0.109375 C 3.394531 0.0234375 3.0625 0.09375 2.6875 0.09375 C 2.050781 0.09375 1.566406 -0.078125 1.234375 -0.421875 C 0.910156 -0.765625 0.75 -1.257812 0.75 -1.90625 L 0.75 -5.453125 L 2.234375 -5.453125 L 2.234375 -2.265625 C 2.234375 -1.878906 2.300781 -1.585938 2.4375 -1.390625 C 2.582031 -1.191406 2.8125 -1.09375 3.125 -1.09375 C 3.539062 -1.09375 3.835938 -1.226562 4.015625 -1.5 C 4.203125 -1.78125 4.296875 -2.242188 4.296875 -2.890625 L 4.296875 -5.453125 L 5.796875 -5.453125 L 5.796875 0 Z M 4.65625 0 "/></g></g></g><g fill="#000000" fill-opacity="1"><g transform="translate(78.876938, 31.452134)"><g><path d="M 4.59375 -1.625 C 4.59375 -1.0625 4.394531 -0.632812 4 -0.34375 C 3.613281 -0.0507812 3.035156 0.09375 2.265625 0.09375 C 1.867188 0.09375 1.53125 0.0664062 1.25 0.015625 C 0.96875 -0.0351562 0.703125 -0.113281 0.453125 -0.21875 L 0.453125 -1.453125 C 0.734375 -1.316406 1.046875 -1.203125 1.390625 -1.109375 C 1.742188 -1.023438 2.050781 -0.984375 2.3125 -0.984375 C 2.851562 -0.984375 3.125 -1.140625 3.125 -1.453125 C 3.125 -1.578125 3.085938 -1.675781 3.015625 -1.75 C 2.941406 -1.820312 2.816406 -1.90625 2.640625 -2 C 2.460938 -2.09375 2.226562 -2.195312 1.9375 -2.3125 C 1.519531 -2.488281 1.210938 -2.648438 1.015625 -2.796875 C 0.816406 -2.953125 0.671875 -3.125 0.578125 -3.3125 C 0.492188 -3.507812 0.453125 -3.75 0.453125 -4.03125 C 0.453125 -4.519531 0.640625 -4.894531 1.015625 -5.15625 C 1.390625 -5.425781 1.921875 -5.5625 2.609375 -5.5625 C 3.265625 -5.5625 3.90625 -5.414062 4.53125 -5.125 L 4.078125 -4.0625 C 3.804688 -4.175781 3.550781 -4.269531 3.3125 -4.34375 C 3.070312 -4.414062 2.832031 -4.453125 2.59375 -4.453125 C 2.144531 -4.453125 1.921875 -4.335938 1.921875 -4.109375 C 1.921875 -3.972656 1.992188 -3.851562 2.140625 -3.75 C 2.285156 -3.65625 2.597656 -3.515625 3.078125 -3.328125 C 3.503906 -3.148438 3.816406 -2.984375 4.015625 -2.828125 C 4.210938 -2.679688 4.359375 -2.507812 4.453125 -2.3125 C 4.546875 -2.125 4.59375 -1.894531 4.59375 -1.625 Z M 4.59375 -1.625 "/></g></g></g><g fill="#000000" fill-opacity="1"><g transform="translate(83.845699, 31.452134)"><g/></g></g><g fill="#000000" fill-opacity="1"><g transform="translate(86.442341, 31.452134)"><g><path d="M 3.828125 -5.5625 C 4.023438 -5.5625 4.191406 -5.546875 4.328125 -5.515625 L 4.21875 -4.125 C 4.09375 -4.15625 3.945312 -4.171875 3.78125 -4.171875 C 3.300781 -4.171875 2.925781 -4.046875 2.65625 -3.796875 C 2.394531 -3.554688 2.265625 -3.21875 2.265625 -2.78125 L 2.265625 0 L 0.78125 0 L 0.78125 -5.453125 L 1.90625 -5.453125 L 2.125 -4.546875 L 2.203125 -4.546875 C 2.367188 -4.847656 2.597656 -5.09375 2.890625 -5.28125 C 3.179688 -5.46875 3.492188 -5.5625 3.828125 -5.5625 Z M 3.828125 -5.5625 "/></g></g></g><g fill="#000000" fill-opacity="1"><g transform="translate(90.981582, 31.452134)"><g><path d="M 3.046875 -4.5 C 2.722656 -4.5 2.472656 -4.398438 2.296875 -4.203125 C 2.117188 -4.003906 2.019531 -3.71875 2 -3.34375 L 4.078125 -3.34375 C 4.078125 -3.71875 3.984375 -4.003906 3.796875 -4.203125 C 3.609375 -4.398438 3.359375 -4.5 3.046875 -4.5 Z M 3.25 0.09375 C 2.375 0.09375 1.6875 -0.144531 1.1875 -0.625 C 0.695312 -1.113281 0.453125 -1.800781 0.453125 -2.6875 C 0.453125 -3.601562 0.679688 -4.3125 1.140625 -4.8125 C 1.597656 -5.3125 2.226562 -5.5625 3.03125 -5.5625 C 3.800781 -5.5625 4.398438 -5.34375 4.828125 -4.90625 C 5.265625 -4.46875 5.484375 -3.859375 5.484375 -3.078125 L 5.484375 -2.359375 L 1.953125 -2.359375 C 1.972656 -1.929688 2.097656 -1.597656 2.328125 -1.359375 C 2.566406 -1.128906 2.898438 -1.015625 3.328125 -1.015625 C 3.648438 -1.015625 3.957031 -1.046875 4.25 -1.109375 C 4.539062 -1.179688 4.847656 -1.289062 5.171875 -1.4375 L 5.171875 -0.28125 C 4.910156 -0.15625 4.628906 -0.0625 4.328125 0 C 4.035156 0.0625 3.675781 0.09375 3.25 0.09375 Z M 3.25 0.09375 "/></g></g></g><g fill="#000000" fill-opacity="1"><g transform="translate(96.887477, 31.452134)"><g><path d="M 4.59375 -1.625 C 4.59375 -1.0625 4.394531 -0.632812 4 -0.34375 C 3.613281 -0.0507812 3.035156 0.09375 2.265625 0.09375 C 1.867188 0.09375 1.53125 0.0664062 1.25 0.015625 C 0.96875 -0.0351562 0.703125 -0.113281 0.453125 -0.21875 L 0.453125 -1.453125 C 0.734375 -1.316406 1.046875 -1.203125 1.390625 -1.109375 C 1.742188 -1.023438 2.050781 -0.984375 2.3125 -0.984375 C 2.851562 -0.984375 3.125 -1.140625 3.125 -1.453125 C 3.125 -1.578125 3.085938 -1.675781 3.015625 -1.75 C 2.941406 -1.820312 2.816406 -1.90625 2.640625 -2 C 2.460938 -2.09375 2.226562 -2.195312 1.9375 -2.3125 C 1.519531 -2.488281 1.210938 -2.648438 1.015625 -2.796875 C 0.816406 -2.953125 0.671875 -3.125 0.578125 -3.3125 C 0.492188 -3.507812 0.453125 -3.75 0.453125 -4.03125 C 0.453125 -4.519531 0.640625 -4.894531 1.015625 -5.15625 C 1.390625 -5.425781 1.921875 -5.5625 2.609375 -5.5625 C 3.265625 -5.5625 3.90625 -5.414062 4.53125 -5.125 L 4.078125 -4.0625 C 3.804688 -4.175781 3.550781 -4.269531 3.3125 -4.34375 C 3.070312 -4.414062 2.832031 -4.453125 2.59375 -4.453125 C 2.144531 -4.453125 1.921875 -4.335938 1.921875 -4.109375 C 1.921875 -3.972656 1.992188 -3.851562 2.140625 -3.75 C 2.285156 -3.65625 2.597656 -3.515625 3.078125 -3.328125 C 3.503906 -3.148438 3.816406 -2.984375 4.015625 -2.828125 C 4.210938 -2.679688 4.359375 -2.507812 4.453125 -2.3125 C 4.546875 -2.125 4.59375 -1.894531 4.59375 -1.625 Z M 4.59375 -1.625 "/></g></g></g><g fill="#000000" fill-opacity="1"><g transform="translate(101.856239, 31.452134)"><g><path d="M 3.046875 -4.5 C 2.722656 -4.5 2.472656 -4.398438 2.296875 -4.203125 C 2.117188 -4.003906 2.019531 -3.71875 2 -3.34375 L 4.078125 -3.34375 C 4.078125 -3.71875 3.984375 -4.003906 3.796875 -4.203125 C 3.609375 -4.398438 3.359375 -4.5 3.046875 -4.5 Z M 3.25 0.09375 C 2.375 0.09375 1.6875 -0.144531 1.1875 -0.625 C 0.695312 -1.113281 0.453125 -1.800781 0.453125 -2.6875 C 0.453125 -3.601562 0.679688 -4.3125 1.140625 -4.8125 C 1.597656 -5.3125 2.226562 -5.5625 3.03125 -5.5625 C 3.800781 -5.5625 4.398438 -5.34375 4.828125 -4.90625 C 5.265625 -4.46875 5.484375 -3.859375 5.484375 -3.078125 L 5.484375 -2.359375 L 1.953125 -2.359375 C 1.972656 -1.929688 2.097656 -1.597656 2.328125 -1.359375 C 2.566406 -1.128906 2.898438 -1.015625 3.328125 -1.015625 C 3.648438 -1.015625 3.957031 -1.046875 4.25 -1.109375 C 4.539062 -1.179688 4.847656 -1.289062 5.171875 -1.4375 L 5.171875 -0.28125 C 4.910156 -0.15625 4.628906 -0.0625 4.328125 0 C 4.035156 0.0625 3.675781 0.09375 3.25 0.09375 Z M 3.25 0.09375 "/></g></g></g><g fill="#000000" fill-opacity="1"><g transform="translate(107.762134, 31.452134)"><g><path d="M 3.828125 -5.5625 C 4.023438 -5.5625 4.191406 -5.546875 4.328125 -5.515625 L 4.21875 -4.125 C 4.09375 -4.15625 3.945312 -4.171875 3.78125 -4.171875 C 3.300781 -4.171875 2.925781 -4.046875 2.65625 -3.796875 C 2.394531 -3.554688 2.265625 -3.21875 2.265625 -2.78125 L 2.265625 0 L 0.78125 0 L 0.78125 -5.453125 L 1.90625 -5.453125 L 2.125 -4.546875 L 2.203125 -4.546875 C 2.367188 -4.847656 2.597656 -5.09375 2.890625 -5.28125 C 3.179688 -5.46875 3.492188 -5.5625 3.828125 -5.5625 Z M 3.828125 -5.5625 "/></g></g></g><g fill="#000000" fill-opacity="1"><g transform="translate(112.301375, 31.452134)"><g><path d="M 2.078125 0 L 0 -5.453125 L 1.5625 -5.453125 L 2.609375 -2.34375 C 2.722656 -1.957031 2.796875 -1.585938 2.828125 -1.234375 L 2.859375 -1.234375 C 2.878906 -1.546875 2.953125 -1.914062 3.078125 -2.34375 L 4.125 -5.453125 L 5.6875 -5.453125 L 3.609375 0 Z M 2.078125 0 "/></g></g></g><g fill="#000000" fill-opacity="1"><g transform="translate(117.987635, 31.452134)"><g><path d="M 4.25 0 L 3.953125 -0.75 L 3.921875 -0.75 C 3.671875 -0.425781 3.410156 -0.203125 3.140625 -0.078125 C 2.878906 0.0351562 2.535156 0.09375 2.109375 0.09375 C 1.585938 0.09375 1.175781 -0.0507812 0.875 -0.34375 C 0.570312 -0.644531 0.421875 -1.070312 0.421875 -1.625 C 0.421875 -2.207031 0.625 -2.632812 1.03125 -2.90625 C 1.4375 -3.1875 2.046875 -3.34375 2.859375 -3.375 L 3.8125 -3.40625 L 3.8125 -3.640625 C 3.8125 -4.191406 3.523438 -4.46875 2.953125 -4.46875 C 2.523438 -4.46875 2.015625 -4.335938 1.421875 -4.078125 L 0.921875 -5.078125 C 1.554688 -5.410156 2.253906 -5.578125 3.015625 -5.578125 C 3.742188 -5.578125 4.300781 -5.414062 4.6875 -5.09375 C 5.082031 -4.769531 5.28125 -4.285156 5.28125 -3.640625 L 5.28125 0 Z M 3.8125 -2.53125 L 3.234375 -2.515625 C 2.796875 -2.492188 2.472656 -2.410156 2.265625 -2.265625 C 2.054688 -2.128906 1.953125 -1.914062 1.953125 -1.625 C 1.953125 -1.195312 2.191406 -0.984375 2.671875 -0.984375 C 3.015625 -0.984375 3.289062 -1.082031 3.5 -1.28125 C 3.707031 -1.488281 3.8125 -1.753906 3.8125 -2.078125 Z M 3.8125 -2.53125 "/></g></g></g><g fill="#000000" fill-opacity="1"><g transform="translate(124.02532, 31.452134)"><g><path d="M 4.59375 -1.625 C 4.59375 -1.0625 4.394531 -0.632812 4 -0.34375 C 3.613281 -0.0507812 3.035156 0.09375 2.265625 0.09375 C 1.867188 0.09375 1.53125 0.0664062 1.25 0.015625 C 0.96875 -0.0351562 0.703125 -0.113281 0.453125 -0.21875 L 0.453125 -1.453125 C 0.734375 -1.316406 1.046875 -1.203125 1.390625 -1.109375 C 1.742188 -1.023438 2.050781 -0.984375 2.3125 -0.984375 C 2.851562 -0.984375 3.125 -1.140625 3.125 -1.453125 C 3.125 -1.578125 3.085938 -1.675781 3.015625 -1.75 C 2.941406 -1.820312 2.816406 -1.90625 2.640625 -2 C 2.460938 -2.09375 2.226562 -2.195312 1.9375 -2.3125 C 1.519531 -2.488281 1.210938 -2.648438 1.015625 -2.796875 C 0.816406 -2.953125 0.671875 -3.125 0.578125 -3.3125 C 0.492188 -3.507812 0.453125 -3.75 0.453125 -4.03125 C 0.453125 -4.519531 0.640625 -4.894531 1.015625 -5.15625 C 1.390625 -5.425781 1.921875 -5.5625 2.609375 -5.5625 C 3.265625 -5.5625 3.90625 -5.414062 4.53125 -5.125 L 4.078125 -4.0625 C 3.804688 -4.175781 3.550781 -4.269531 3.3125 -4.34375 C 3.070312 -4.414062 2.832031 -4.453125 2.59375 -4.453125 C 2.144531 -4.453125 1.921875 -4.335938 1.921875 -4.109375 C 1.921875 -3.972656 1.992188 -3.851562 2.140625 -3.75 C 2.285156 -3.65625 2.597656 -3.515625 3.078125 -3.328125 C 3.503906 -3.148438 3.816406 -2.984375 4.015625 -2.828125 C 4.210938 -2.679688 4.359375 -2.507812 4.453125 -2.3125 C 4.546875 -2.125 4.59375 -1.894531 4.59375 -1.625 Z M 4.59375 -1.625 "/></g></g></g></g></g></g></g></g></g></mask><clipPath id="b948a2b96e"><path d="M 0.824219 0.703125 L 148.574219 0.703125 L 148.574219 41 L 0.824219 41 Z M 0.824219 0.703125 " clip-rule="nonzero"/></clipPath><clipPath id="38c52a1bfe"><rect x="0" width="150" y="0" height="41"/></clipPath><clipPath id="4237017ca3"><rect x="0" width="150" y="0" height="41"/></clipPath></defs><g clip-path="url(#273758bbaa)"><g clip-path="url(#1e7232147c)"><g clip-path="url(#d223d97301)"><path fill="#03320c" d="M 17.113281 49.867188 L 19.945312 47.300781 C 20.101562 47.15625 20.113281 46.914062 19.972656 46.757812 L 12.195312 38.183594 C 12.054688 38.027344 11.8125 38.015625 11.65625 38.160156 L 8.824219 40.726562 L 4.417969 35.863281 L 15.972656 25.386719 L 20.960938 30.894531 C 19.054688 32.890625 18.988281 36.058594 20.867188 38.132812 C 22.75 40.210938 25.910156 40.449219 28.082031 38.746094 L 33.074219 44.25 L 21.519531 54.730469 Z M 16.597656 49.300781 L 9.339844 41.292969 L 11.886719 38.984375 L 19.144531 46.988281 Z M 27.566406 38.179688 C 25.710938 39.597656 23.035156 39.382812 21.4375 37.617188 C 19.839844 35.855469 19.882812 33.171875 21.480469 31.460938 Z M 22.046875 30.949219 C 23.902344 29.527344 26.578125 29.742188 28.175781 31.507812 C 29.777344 33.269531 29.730469 35.953125 28.136719 37.664062 Z M 32.5 19.257812 L 29.667969 21.824219 C 29.511719 21.96875 29.5 22.210938 29.644531 22.367188 L 37.417969 30.941406 C 37.558594 31.097656 37.800781 31.109375 37.957031 30.964844 L 40.789062 28.398438 L 45.199219 33.261719 L 33.644531 43.738281 L 28.652344 38.230469 C 30.558594 36.238281 30.628906 33.066406 28.746094 30.992188 C 26.863281 28.914062 23.703125 28.675781 21.53125 30.378906 L 16.539062 24.875 L 28.09375 14.398438 Z M 33.015625 19.824219 L 40.277344 27.832031 L 37.726562 30.140625 L 30.46875 22.136719 Z M 46.023438 33.027344 L 28.40625 13.597656 C 28.261719 13.441406 28.019531 13.429688 27.863281 13.570312 L 3.617188 35.554688 C 3.460938 35.695312 3.449219 35.941406 3.589844 36.097656 L 21.210938 55.527344 C 21.351562 55.683594 21.59375 55.695312 21.75 55.554688 L 45.996094 33.570312 C 46.152344 33.429688 46.164062 33.1875 46.023438 33.027344 " fill-opacity="1" fill-rule="nonzero"/></g></g></g><g clip-path="url(#2a880212a7)"><g clip-path="url(#418ad63566)"><g transform="matrix(1, 0, 0, 1, 14, -0.000000000000001443)"><g clip-path="url(#3779721f85)"><g clip-path="url(#edb78e86f8)"><g clip-path="url(#c081e77ffb)"><path fill="#ffffff" d="M 0.402344 22.246094 L 24.773438 0.722656 L 45.105469 23.742188 L 20.734375 45.265625 Z M 0.402344 22.246094 " fill-opacity="1" fill-rule="nonzero"/></g></g></g></g></g></g><g clip-path="url(#673d042cba)"><g clip-path="url(#b32ab1da5a)"><g clip-path="url(#61ffdf4f48)"><g clip-path="url(#a99833b4ad)"><path fill="#000000" d="M 28.597656 26.609375 L 27.351562 27.730469 C 26.816406 28.210938 26.773438 29.039062 27.253906 29.574219 L 28.289062 30.726562 C 28.773438 31.261719 29.597656 31.304688 30.132812 30.824219 L 31.382812 29.703125 C 31.914062 29.222656 31.957031 28.394531 31.476562 27.859375 L 30.441406 26.707031 C 29.957031 26.171875 29.132812 26.128906 28.597656 26.609375 Z M 30.835938 28.433594 C 31 28.617188 30.988281 28.898438 30.804688 29.0625 L 29.558594 30.183594 C 29.375 30.347656 29.09375 30.332031 28.929688 30.152344 L 27.894531 29 C 27.730469 28.816406 27.742188 28.535156 27.925781 28.371094 L 29.175781 27.25 C 29.355469 27.085938 29.636719 27.101562 29.800781 27.28125 Z M 34.386719 21.398438 L 33.140625 22.523438 C 32.605469 23.003906 32.5625 23.828125 33.042969 24.367188 L 34.078125 25.515625 C 34.5625 26.050781 35.386719 26.097656 35.921875 25.617188 L 37.171875 24.492188 C 37.703125 24.011719 37.746094 23.1875 37.265625 22.652344 L 36.230469 21.5 C 35.746094 20.964844 34.921875 20.917969 34.386719 21.398438 Z M 36.625 23.226562 C 36.789062 23.40625 36.777344 23.6875 36.59375 23.851562 L 35.34375 24.976562 C 35.164062 25.140625 34.882812 25.125 34.71875 24.941406 L 33.683594 23.792969 C 33.519531 23.609375 33.53125 23.328125 33.714844 23.164062 L 34.964844 22.039062 C 35.144531 21.875 35.425781 21.890625 35.589844 22.074219 Z M 32.21875 30.632812 L 30.96875 31.753906 C 30.4375 32.234375 30.394531 33.0625 30.875 33.597656 L 31.910156 34.75 C 32.394531 35.285156 33.21875 35.328125 33.753906 34.847656 L 35 33.726562 C 35.535156 33.246094 35.578125 32.417969 35.09375 31.882812 L 34.058594 30.730469 C 33.578125 30.195312 32.753906 30.152344 32.21875 30.632812 Z M 34.457031 32.457031 C 34.621094 32.640625 34.605469 32.921875 34.425781 33.085938 L 33.175781 34.207031 C 32.996094 34.371094 32.714844 34.355469 32.550781 34.175781 L 31.515625 33.023438 C 31.347656 32.839844 31.363281 32.558594 31.546875 32.394531 L 32.792969 31.273438 C 32.976562 31.109375 33.257812 31.125 33.421875 31.304688 Z M 38.007812 25.421875 L 36.757812 26.546875 C 36.226562 27.027344 36.183594 27.851562 36.664062 28.390625 L 37.699219 29.539062 C 38.183594 30.074219 39.007812 30.121094 39.542969 29.640625 L 40.789062 28.515625 C 41.324219 28.035156 41.367188 27.210938 40.882812 26.675781 L 39.847656 25.523438 C 39.367188 24.988281 38.542969 24.941406 38.007812 25.421875 Z M 40.246094 27.25 C 40.410156 27.429688 40.394531 27.710938 40.214844 27.875 L 38.964844 29 C 38.785156 29.164062 38.503906 29.148438 38.339844 28.964844 L 37.300781 27.816406 C 37.136719 27.632812 37.152344 27.351562 37.335938 27.1875 L 38.582031 26.0625 C 38.765625 25.898438 39.046875 25.914062 39.210938 26.097656 Z M 43.796875 20.214844 L 42.546875 21.339844 C 42.011719 21.820312 41.972656 22.644531 42.453125 23.179688 L 43.488281 24.332031 C 43.96875 24.867188 44.796875 24.914062 45.328125 24.433594 L 46.578125 23.308594 C 47.113281 22.828125 47.15625 22.003906 46.671875 21.464844 L 45.636719 20.316406 C 45.15625 19.78125 44.328125 19.734375 43.796875 20.214844 Z M 46.035156 22.039062 C 46.199219 22.222656 46.183594 22.503906 46.003906 22.667969 L 44.753906 23.792969 C 44.570312 23.957031 44.289062 23.941406 44.125 23.757812 L 43.089844 22.605469 C 42.925781 22.425781 42.941406 22.144531 43.125 21.980469 L 44.371094 20.855469 C 44.554688 20.691406 44.835938 20.707031 45 20.890625 Z M 35.835938 34.65625 L 34.589844 35.777344 C 34.054688 36.257812 34.011719 37.085938 34.496094 37.621094 L 35.53125 38.769531 C 36.011719 39.308594 36.839844 39.351562 37.371094 38.871094 L 38.621094 37.746094 C 39.15625 37.265625 39.195312 36.441406 38.714844 35.90625 L 37.679688 34.753906 C 37.199219 34.21875 36.371094 34.175781 35.835938 34.65625 Z M 38.078125 36.480469 C 38.242188 36.664062 38.226562 36.945312 38.042969 37.109375 L 36.796875 38.230469 C 36.613281 38.394531 36.332031 38.378906 36.167969 38.195312 L 35.132812 37.046875 C 34.96875 36.863281 34.984375 36.582031 35.164062 36.417969 L 36.414062 35.296875 C 36.597656 35.132812 36.878906 35.148438 37.042969 35.328125 Z M 41.625 29.445312 L 40.378906 30.570312 C 39.84375 31.050781 39.800781 31.875 40.285156 32.410156 L 41.320312 33.5625 C 41.800781 34.097656 42.628906 34.144531 43.160156 33.664062 L 44.410156 32.539062 C 44.945312 32.058594 44.984375 31.234375 44.503906 30.699219 L 43.46875 29.546875 C 42.988281 29.011719 42.160156 28.964844 41.625 29.445312 Z M 43.867188 31.273438 C 44.03125 31.453125 44.015625 31.734375 43.832031 31.898438 L 42.585938 33.023438 C 42.402344 33.1875 42.121094 33.171875 41.957031 32.988281 L 40.921875 31.835938 C 40.757812 31.65625 40.773438 31.375 40.953125 31.210938 L 42.203125 30.085938 C 42.382812 29.921875 42.667969 29.9375 42.832031 30.121094 Z M 47.414062 24.238281 L 46.167969 25.363281 C 45.632812 25.84375 45.589844 26.667969 46.074219 27.203125 L 47.109375 28.355469 C 47.589844 28.890625 48.414062 28.933594 48.949219 28.453125 L 50.199219 27.332031 C 50.730469 26.851562 50.773438 26.023438 50.292969 25.488281 L 49.257812 24.339844 C 48.773438 23.804688 47.949219 23.757812 47.414062 24.238281 Z M 49.652344 26.0625 C 49.816406 26.246094 49.804688 26.527344 49.621094 26.691406 L 48.375 27.816406 C 48.191406 27.976562 47.910156 27.964844 47.746094 27.78125 L 46.710938 26.628906 C 46.546875 26.445312 46.5625 26.164062 46.742188 26.003906 L 47.992188 24.878906 C 48.171875 24.714844 48.453125 24.730469 48.617188 24.914062 Z M 46.644531 5.613281 C 43.917969 2.585938 39.246094 2.332031 36.226562 5.046875 C 35.265625 5.910156 34.589844 6.96875 34.195312 8.113281 C 33.777344 8.121094 33.367188 8.28125 33.054688 8.5625 C 32.324219 9.21875 32.269531 10.34375 32.925781 11.074219 L 33.664062 11.898438 L 32.125 13.285156 L 31.382812 12.460938 C 30.726562 11.730469 29.601562 11.671875 28.875 12.324219 C 28.144531 12.976562 28.089844 14.105469 28.746094 14.835938 L 29.484375 15.65625 L 27.945312 17.042969 L 27.203125 16.222656 C 26.546875 15.492188 25.421875 15.429688 24.691406 16.085938 C 23.964844 16.738281 23.910156 17.867188 24.566406 18.59375 L 25.304688 19.417969 L 23.765625 20.804688 L 23.023438 19.980469 C 22.367188 19.253906 21.242188 19.191406 20.511719 19.84375 C 19.785156 20.5 19.726562 21.625 20.382812 22.355469 L 21.125 23.179688 L 20.484375 23.753906 C 19.292969 24.828125 19.199219 26.671875 20.273438 27.867188 L 33.171875 42.203125 C 34.246094 43.402344 36.09375 43.5 37.285156 42.429688 L 53.746094 27.621094 C 54.9375 26.546875 55.03125 24.699219 53.957031 23.503906 L 46.699219 15.4375 C 49.148438 12.675781 49.179688 8.429688 46.644531 5.613281 Z M 33.628906 9.203125 C 33.722656 9.117188 33.832031 9.058594 33.949219 9.019531 C 33.832031 9.589844 33.78125 10.175781 33.800781 10.761719 L 33.5625 10.5 C 33.222656 10.121094 33.253906 9.542969 33.628906 9.203125 Z M 29.382812 14.261719 C 29.042969 13.882812 29.074219 13.300781 29.449219 12.964844 C 29.824219 12.625 30.40625 12.65625 30.746094 13.035156 L 31.484375 13.859375 L 30.125 15.082031 Z M 25.203125 18.019531 C 24.863281 17.644531 24.894531 17.0625 25.269531 16.726562 C 25.644531 16.386719 26.226562 16.417969 26.566406 16.796875 L 27.304688 17.617188 L 25.945312 18.84375 Z M 21.023438 21.78125 C 20.683594 21.40625 20.714844 20.824219 21.089844 20.484375 C 21.464844 20.148438 22.046875 20.179688 22.382812 20.558594 L 23.125 21.378906 L 21.761719 22.605469 Z M 21.058594 24.394531 L 21.699219 23.820312 L 22.441406 24.640625 C 23.097656 25.371094 24.222656 25.433594 24.953125 24.777344 C 25.128906 24.621094 25.140625 24.347656 24.980469 24.171875 C 24.824219 23.996094 24.550781 23.980469 24.375 24.136719 C 24 24.476562 23.417969 24.445312 23.078125 24.066406 L 22.339844 23.246094 L 25.878906 20.058594 L 26.621094 20.882812 C 27.277344 21.609375 28.402344 21.671875 29.132812 21.015625 C 29.308594 20.859375 29.320312 20.585938 29.164062 20.410156 C 29.003906 20.234375 28.730469 20.21875 28.554688 20.378906 C 28.179688 20.714844 27.597656 20.683594 27.261719 20.308594 L 26.519531 19.484375 L 30.0625 16.296875 L 30.800781 17.121094 C 31.457031 17.851562 32.582031 17.910156 33.3125 17.257812 C 33.488281 17.097656 33.5 16.824219 33.34375 16.648438 C 33.183594 16.472656 32.910156 16.457031 32.734375 16.617188 C 32.359375 16.953125 31.777344 16.921875 31.441406 16.546875 L 30.699219 15.722656 L 34.109375 12.65625 C 34.414062 13.667969 34.9375 14.628906 35.691406 15.464844 C 35.90625 15.707031 36.136719 15.929688 36.375 16.132812 L 22.28125 28.816406 L 20.910156 27.292969 C 20.152344 26.453125 20.21875 25.152344 21.058594 24.394531 Z M 53.167969 26.980469 L 36.710938 41.789062 C 35.871094 42.542969 34.566406 42.472656 33.808594 41.628906 L 22.855469 29.457031 L 37.070312 16.664062 C 37.601562 17.019531 38.167969 17.300781 38.753906 17.503906 C 38.390625 17.992188 38.410156 18.6875 38.832031 19.160156 L 39.867188 20.308594 C 40.351562 20.84375 41.175781 20.890625 41.710938 20.410156 L 42.960938 19.285156 C 43.429688 18.859375 43.519531 18.164062 43.199219 17.640625 C 44.238281 17.347656 45.230469 16.816406 46.089844 16.046875 L 53.316406 24.082031 C 54.074219 24.921875 54.007812 26.222656 53.167969 26.980469 Z M 39.714844 17.765625 C 40.550781 17.9375 41.410156 17.960938 42.253906 17.839844 L 42.414062 18.015625 C 42.578125 18.199219 42.5625 18.480469 42.382812 18.644531 L 41.132812 19.769531 C 40.953125 19.933594 40.671875 19.917969 40.507812 19.734375 L 39.472656 18.582031 C 39.308594 18.402344 39.320312 18.121094 39.503906 17.957031 Z M 45.53125 15.394531 C 42.863281 17.792969 38.734375 17.570312 36.328125 14.894531 C 33.921875 12.21875 34.132812 8.085938 36.800781 5.6875 C 39.46875 3.289062 43.597656 3.511719 46.003906 6.1875 C 48.410156 8.863281 48.199219 12.992188 45.53125 15.394531 Z M 37.460938 6.421875 C 35.195312 8.460938 35.015625 11.964844 37.0625 14.234375 C 39.105469 16.507812 42.609375 16.695312 44.871094 14.660156 C 47.136719 12.621094 47.316406 9.117188 45.273438 6.847656 C 43.230469 4.574219 39.726562 4.386719 37.460938 6.421875 Z M 44.601562 13.714844 L 44.351562 13.4375 C 44.191406 13.257812 43.917969 13.246094 43.742188 13.402344 C 43.566406 13.5625 43.550781 13.832031 43.710938 14.011719 L 43.964844 14.289062 C 42.167969 15.628906 39.652344 15.492188 38.003906 13.96875 L 38.28125 13.714844 C 38.457031 13.558594 38.472656 13.285156 38.3125 13.109375 C 38.152344 12.933594 37.882812 12.917969 37.707031 13.074219 L 37.425781 13.328125 C 36.082031 11.527344 36.210938 9.007812 37.730469 7.363281 L 37.984375 7.644531 C 38.144531 7.820312 38.414062 7.835938 38.589844 7.675781 C 38.765625 7.519531 38.78125 7.246094 38.621094 7.070312 L 38.371094 6.789062 C 40.164062 5.449219 42.683594 5.585938 44.332031 7.113281 L 44.050781 7.363281 C 43.875 7.523438 43.863281 7.796875 44.019531 7.972656 C 44.179688 8.148438 44.453125 8.164062 44.628906 8.003906 L 44.90625 7.753906 C 46.25 9.554688 46.121094 12.070312 44.601562 13.714844 Z M 42.910156 8.972656 C 43.066406 9.152344 43.054688 9.421875 42.878906 9.582031 L 41.457031 10.859375 C 41.277344 11.019531 41.007812 11.003906 40.847656 10.828125 L 39.058594 8.839844 C 38.902344 8.664062 38.914062 8.390625 39.089844 8.234375 C 39.265625 8.074219 39.539062 8.089844 39.699219 8.265625 L 41.199219 9.933594 L 42.300781 8.941406 C 42.476562 8.78125 42.75 8.796875 42.910156 8.972656 Z M 42.910156 8.972656 " fill-opacity="1" fill-rule="nonzero"/></g></g></g></g><g clip-path="url(#23aee8ac3b)"><g transform="matrix(1, 0, 0, 1, 0, -0.000000000000001479)"><g clip-path="url(#b2ae31e141)"><g clip-path="url(#7f21f45735)"><g mask="url(#d646012916)"><g transform="matrix(1, 0, 0, 1, 0, -0.000000000000001479)"><g clip-path="url(#49ca9057ba)"><g clip-path="url(#8b7adb424a)"><path fill="url(#7ded9439de)" d="M 0.992188 0 L 0.992188 60 L 240 60 L 240 0 Z M 0.992188 0 " fill-rule="nonzero"/></g></g></g></g></g></g></g></g><g clip-path="url(#ede4ba8a36)"><g transform="matrix(1, 0, 0, 1, 38, 19)"><g clip-path="url(#4237017ca3)"><g clip-path="url(#0a4aa89168)"><g mask="url(#4c44911b32)"><g><g clip-path="url(#38c52a1bfe)"><g clip-path="url(#b948a2b96e)"><path fill="url(#b6c1df88b8)" d="M 0.824219 0.703125 L 0.824219 41 L 148.574219 41 L 148.574219 0.703125 Z M 0.824219 0.703125 " fill-rule="nonzero"/></g></g></g></g></g></g></g></g></svg>